<?xml version="1.0" encoding="utf-8"?>
<!-- Generator: Adobe Illustrator 26.0.2, SVG Export Plug-In . SVG Version: 6.00 Build 0)  -->
<svg version="1.1" id="Livello_1" xmlns="http://www.w3.org/2000/svg" xmlns:xlink="http://www.w3.org/1999/xlink" x="0px" y="0px"
	 viewBox="0 0 506 233" style="enable-background:new 0 0 506 233;" xml:space="preserve">
<style type="text/css">
	.st0{fill:#E8501D;}
	.st1{fill:#E94E1B;}
	.st2{fill:#18407E;}
	.st3{fill:#398ECD;}
	.st4{fill:#FFFFFF;}
</style>
<g>
	<path class="st0" d="M183.3,146.5h-42.3c0.9,3.2,1.8,6.3,3,9.5c8.5,8.1,29.5,25.3,54.6,25.3c4.5,0,9-0.2,13.7-0.9
		C199.5,172.3,189.3,160.5,183.3,146.5z"/>
	<path class="st0" d="M183.7,85.2c11.9-26.6,38.5-45.1,69.7-45.1s57.8,18.6,69.7,45.1h42.5C351.8,36.1,306.7,0,253.3,0
		c-53.4,0-98.5,36.1-112.1,85.2H183.7z"/>
	<path class="st0" d="M323.4,146.5c-2.8,6.6-6.6,12.7-11,18.2c19,2,31.8,11,37.8,16.3c6.9-10.5,12.2-22.1,15.6-34.5H323.4z"/>
</g>
<path class="st1" d="M154.5,85.3h37.3"/>
<path class="st1" d="M334.2,85.2h37.3"/>
<path class="st2" d="M0,92.8h12.9l10.5,17l10.5-17h12.9v44H34.8v-25.2l-11.3,17.2h-0.3l-11.2-17v25.1H0V92.8z"/>
<path class="st2" d="M52.1,92.8h35.6v10.4H64.2v6.7h21.3v9.6H64.2v6.9H88v10.4H52.1V92.8z"/>
<path class="st2" d="M92.3,92.8h17.1c15.8,0,25,9,25,21.7v0.1c0,12.7-9.3,22.1-25.2,22.1H92.4L92.3,92.8L92.3,92.8z M109.6,126
	c7.3,0,12.2-4,12.2-11.1v-0.1c0-7-4.9-11.1-12.2-11.1h-5v22.4L109.6,126L109.6,126z"/>
<path class="st2" d="M137.5,92.8h12.4v44h-12.4V92.8z"/>
<path class="st2" d="M166.8,103.5h-13.3V92.8h38.8v10.7h-13.3v33.2h-12.3V103.5L166.8,103.5z"/>
<path class="st2" d="M195.8,92.8h35.6v10.4H208v6.7h21.3v9.6H208v6.9h23.8v10.4h-35.9L195.8,92.8L195.8,92.8z"/>
<path class="st2" d="M235.3,92.8h20.9c6.8,0,11.4,1.8,14.4,4.8c2.6,2.5,3.9,5.9,3.9,10.2v0.1c0,6.7-3.6,11.1-9.1,13.5l10.5,15.3
	h-14.1l-8.9-13.3h-5.4v13.3h-12.3L235.3,92.8L235.3,92.8z M255.6,113.9c4.2,0,6.6-2,6.6-5.2v-0.1c0-3.4-2.5-5.2-6.6-5.2h-8v10.5
	H255.6z"/>
<path class="st2" d="M278.1,92.8H299c6.8,0,11.4,1.8,14.4,4.8c2.6,2.5,3.9,5.9,3.9,10.2v0.1c0,6.7-3.6,11.1-9.1,13.5l10.5,15.3
	h-14.1l-8.9-13.3h-5.4v13.3H278L278.1,92.8L278.1,92.8z M298.4,113.9c4.2,0,6.6-2,6.6-5.2v-0.1c0-3.4-2.5-5.2-6.6-5.2h-8v10.5H298.4
	z"/>
<path class="st2" d="M339.9,92.6h11.8l18.9,44.2h-13.1l-3.2-7.9h-17.1l-3.2,7.9H321L339.9,92.6z M350.7,119.4l-4.9-12.5l-5,12.5
	H350.7z"/>
<path class="st2" d="M372.2,92.8h11.4l18.2,23.2V92.8H414v44h-10.7l-18.9-24.1v24.1h-12.1V92.8z"/>
<path class="st2" d="M418.3,92.8h35.6v10.4h-23.4v6.7h21.3v9.6h-21.3v6.9h23.8v10.4h-35.9L418.3,92.8L418.3,92.8z"/>
<path class="st2" d="M475.4,92.6h11.8l18.9,44.2h-13.1l-3.2-7.9h-17.1l-3.2,7.9h-12.9L475.4,92.6z M486.1,119.4l-4.9-12.5l-5,12.5
	H486.1z"/>
<path class="st1" d="M371,146.5h-37.5"/>
<path class="st1" d="M192.4,146.5h-37.5"/>
<path class="st3" d="M347.3,185.1"/>
<path class="st2" d="M303.7,171c-15,0-31.8,4-49.7,8.3c-18.6,4.5-37.6,9-55.5,9c-19.7,0-36.7-9.4-48.1-17.9
	c11.9,22.2,41.9,62.7,103.2,62.7c56,0,87.1-38.3,92.9-46.3C340.4,181.3,325.8,171,303.7,171z"/>
<g>
	<path class="st4" d="M181,63.1l-0.4-2.2c1.8-0.2,3.1-0.9,4.3-2.2c0.9-1.1,1.1-2.5,0.2-3.1l0,0c-0.7-0.7-1.6-0.4-3.6,1.1
		c-2.5,1.8-4.3,2.7-6.3,0.9l0,0c-1.8-1.6-1.8-4.3,0-6.3c1.3-1.6,2.9-2.5,4.7-2.9l0.7,2.2c-1.6,0.4-2.7,1.1-3.6,2
		c-0.9,1.1-0.9,2.2-0.2,2.9l0,0c0.9,0.7,1.6,0.4,3.8-1.1c2.5-1.8,4.3-2.5,6-0.9l0,0c2,1.6,2,4.3,0,6.5
		C185.3,61.8,183.3,62.9,181,63.1z"/>
	<path class="st4" d="M185.3,40.5l1.8-1.6l14.1,6.5l-2,1.8l-3.4-1.6l-4.9,4.5l1.1,3.6l-1.8,1.8L185.3,40.5z M193.8,44.5l-5.6-2.7
		l2,5.8L193.8,44.5z"/>
	<path class="st4" d="M192.4,34.5l2.2-1.6l9.4,6.7l-2.2-11.2l2.2-1.6l2.9,15l-1.8,1.1L192.4,34.5z"/>
	<path class="st4" d="M207.4,25.3l2.2-1.1l6.3,12.8l-2.2,1.1L207.4,25.3z"/>
	<path class="st4" d="M214.4,21.9l2.2-0.7l10.3,6.7l-3.1-9.2l2.2-0.9l4.7,13.2l-2,0.9L218,25.1l3.4,9.4l-2.2,0.9L214.4,21.9z"/>
	<path class="st4" d="M231.8,23.7L231.8,23.7c-0.7-4,1.8-7.6,6-8.3c2.5-0.4,4,0,5.6,1.1l-1.3,2c-1.1-0.7-2.5-1.1-4-0.9
		c-2.5,0.4-4.3,2.9-3.8,5.6l0,0c0.4,2.9,2.7,4.7,5.6,4.3c1.3-0.2,2.5-0.9,3.1-1.6l-0.4-2.7l-3.6,0.7l-0.4-2.2l5.8-0.9l0.9,5.8
		c-1.1,1.3-2.9,2.7-5.4,3.1C235.9,30.4,232.5,27.8,231.8,23.7z"/>
	<path class="st4" d="M255.3,14.3l2.5,0.2l-0.4,5.8l6.7,0.4l0.4-5.8l2.5,0.2l-1.1,14.1l-2.5-0.2l0.4-5.8l-6.7-0.4l-0.4,5.8l-2.5-0.2
		L255.3,14.3z"/>
	<path class="st4" d="M270.3,23.9l2-7.8l2.5,0.7l-2,7.8c-0.7,2.5,0.2,4.3,2.5,4.7c2.2,0.4,3.8-0.4,4.5-2.9l2-7.8l2.5,0.7l-2,7.8
		c-1.1,4-3.8,5.6-7.4,4.7C271,30.4,269.2,27.8,270.3,23.9z"/>
	<path class="st4" d="M288.9,20.6l2.5,1.1l1.1,7.8l6.7-4.3l2.5,1.1l-5.8,12.8l-2.2-1.1l4.3-9.2l-6.7,4.3l0,0l-1.3-7.8l-4.3,9.2
		l-2.2-1.1L288.9,20.6z"/>
	<path class="st4" d="M310.6,32l1.8,1.3l-3.1,15.2L307,47l0.9-3.6l-5.4-3.8l-3.1,2l-2-1.6L310.6,32z M308.6,41.2l1.3-6l-5.1,3.1
		L308.6,41.2z"/>
	<path class="st4" d="M320.7,39.8l1.6,1.6l-1.6,12.3l6.9-6.9l1.8,1.8l-10.1,9.8l-1.6-1.6l1.6-12.5l-6.9,7.2l-1.8-1.8L320.7,39.8z"/>
	<path class="st4" d="M322.3,58.9l2.2,0.2c-0.2,1.8,0,3.4,1.1,4.7c0.9,1.3,2,1.6,2.9,0.9l0,0c0.9-0.7,0.9-1.3,0-3.8
		c-1.1-2.9-1.3-4.7,0.7-6.3l0,0c2-1.3,4.5-0.7,6,1.6c1.1,1.6,1.6,3.4,1.6,5.1h-2.2c0-1.6-0.2-2.9-1.1-4c-0.9-1.1-2-1.3-2.7-0.9l0,0
		c-0.9,0.7-0.9,1.3,0.2,4c1.1,2.9,1.1,4.7-0.7,6l0,0c-2.2,1.6-4.7,0.7-6.3-1.6C322.7,63.3,322,61.3,322.3,58.9z"/>
</g>
</svg>
